<?xml version="1.0" encoding="UTF-8"?>
<svg xmlns="http://www.w3.org/2000/svg" xmlns:xlink="http://www.w3.org/1999/xlink" width="px" height="px" viewBox="0 0 8 7" version="1.1">
<g id="surface1">
<path style=" stroke:none;fill-rule:evenodd;fill:rgb(100%,100%,100%);fill-opacity:1;" d="M 4.605469 0.0585938 C 5.253906 -0.0703125 5.835938 0.0234375 6.328125 0.257812 C 6.351562 0.273438 6.378906 0.285156 6.402344 0.296875 L 6.882812 0.105469 C 7.378906 -0.0976562 7.902344 0.320312 7.816406 0.847656 C 8.050781 1.105469 8.089844 1.539062 7.769531 1.824219 L 7.277344 2.265625 C 7.28125 2.808594 7.207031 3.292969 6.980469 3.835938 C 6.574219 4.800781 5.988281 5.527344 5.277344 6.03125 C 4.769531 6.390625 4.230469 6.617188 3.6875 6.738281 C 3.335938 6.816406 3.039062 6.839844 2.816406 6.835938 C 2.148438 6.84375 1.53125 6.703125 0.980469 6.460938 C 0.652344 6.316406 0.410156 6.167969 0.265625 6.058594 C -0.253906 5.652344 0.0429688 4.816406 0.703125 4.832031 C 0.828125 4.835938 0.949219 4.835938 1.058594 4.828125 C 0.847656 4.578125 0.738281 4.328125 0.691406 4.121094 C 0.675781 4.050781 0.671875 3.976562 0.679688 3.910156 C 0.636719 3.855469 0.59375 3.800781 0.554688 3.746094 C 0.289062 3.34375 0.210938 2.933594 0.234375 2.582031 C 0.234375 2.558594 0.234375 2.550781 0.234375 2.542969 L 0.238281 2.527344 C 0.25 2.425781 0.28125 2.332031 0.332031 2.253906 C 0.1875 1.800781 0.222656 1.347656 0.355469 0.921875 C 0.398438 0.78125 0.445312 0.671875 0.480469 0.601562 C 0.703125 0.167969 1.292969 0.0976562 1.609375 0.464844 C 2.109375 1.050781 2.601562 1.394531 3.070312 1.5625 C 3.128906 1.585938 3.183594 1.601562 3.238281 1.617188 C 3.386719 0.671875 4.007812 0.109375 4.605469 0.0585938 Z M 3.90625 2.417969 C 3.90625 2.417969 2.667969 2.703125 1.289062 1.089844 C 1.289062 1.089844 0.753906 2.148438 1.683594 2.792969 C 1.683594 2.792969 1.378906 2.847656 1.128906 2.667969 C 1.128906 2.667969 1.019531 3.582031 2.132812 3.9375 L 1.539062 3.9375 C 1.539062 3.9375 1.703125 4.675781 2.742188 4.835938 C 2.742188 4.835938 2.3125 5.410156 0.914062 5.371094 C 0.914062 5.371094 1.703125 5.980469 2.902344 5.964844 C 2.902344 5.964844 5.125 6.070312 6.179688 3.5625 C 6.441406 2.945312 6.414062 2.363281 6.394531 2.074219 L 7.074219 1.46875 L 6.394531 1.59375 C 6.394531 1.59375 6.859375 1.253906 6.914062 0.929688 L 6.164062 1.234375 C 6.164062 1.234375 5.597656 0.722656 4.640625 0.929688 C 4.640625 0.929688 3.761719 1.109375 3.90625 2.417969 Z M 3.90625 2.417969 "/>
</g>
</svg>
