<?xml version="1.0" encoding="UTF-8"?>
<svg xmlns="http://www.w3.org/2000/svg" xmlns:xlink="http://www.w3.org/1999/xlink" width="px" height="px" viewBox="0 0 5 8" version="1.1">
<g id="surface1">
<path style=" stroke:none;fill-rule:nonzero;fill:rgb(100%,100%,100%);fill-opacity:1;" d="M 4.199219 0 C 4.476562 0 4.699219 0.222656 4.699219 0.5 L 4.699219 1.101562 C 4.699219 1.375 4.476562 1.601562 4.199219 1.601562 L 3.5 1.601562 C 3.222656 1.601562 3.101562 1.925781 3.101562 2.199219 L 3.101562 3.199219 L 3.800781 3.199219 C 4.074219 3.199219 4.300781 3.425781 4.300781 3.699219 L 4.300781 4.300781 C 4.300781 4.574219 4.074219 4.800781 3.800781 4.800781 L 3.101562 4.800781 L 3.101562 7.5 C 3.101562 7.777344 2.875 8 2.601562 8 L 2 8 C 1.722656 8 1.5 7.777344 1.5 7.5 L 1.5 4.800781 L 0.800781 4.800781 C 0.523438 4.800781 0.300781 4.574219 0.300781 4.300781 L 0.300781 3.699219 C 0.300781 3.425781 0.523438 3.199219 0.800781 3.199219 L 1.5 3.199219 L 1.5 1.601562 C 1.5 0.714844 2.214844 0 3.101562 0 Z M 4.199219 0 "/>
</g>
</svg>
