<?xml version="1.0" encoding="UTF-8"?>
<svg xmlns="http://www.w3.org/2000/svg" xmlns:xlink="http://www.w3.org/1999/xlink" width="px" height="px" viewBox="0 0 16 16" version="1.1">
<g id="surface1">
<path style=" stroke:none;fill-rule:evenodd;fill:rgb(14.901961%,14.901961%,14.901961%);fill-opacity:1;" d="M 10.367188 2 L 5.964844 2 C 4.144531 2 2.667969 3.554688 2.667969 5.472656 L 2.667969 10.105469 C 2.667969 12.023438 4.144531 13.578125 5.964844 13.578125 L 10.367188 13.578125 C 12.1875 13.578125 13.667969 12.023438 13.667969 10.105469 L 13.667969 5.472656 C 13.667969 3.554688 12.1875 2 10.367188 2 Z M 3.765625 5.472656 C 3.765625 4.195312 4.75 3.15625 5.964844 3.15625 L 10.367188 3.15625 C 11.582031 3.15625 12.566406 4.195312 12.566406 5.472656 L 12.566406 10.105469 C 12.566406 11.382812 11.582031 12.421875 10.367188 12.421875 L 5.964844 12.421875 C 4.75 12.421875 3.765625 11.382812 3.765625 10.105469 Z M 8.167969 10.683594 C 6.648438 10.683594 5.417969 9.386719 5.417969 7.789062 C 5.417969 6.191406 6.648438 4.894531 8.167969 4.894531 C 9.683594 4.894531 10.917969 6.191406 10.917969 7.789062 C 10.917969 9.386719 9.683594 10.683594 8.167969 10.683594 Z M 8.167969 9.527344 C 9.078125 9.527344 9.816406 8.75 9.816406 7.789062 C 9.816406 6.832031 9.078125 6.050781 8.167969 6.050781 C 7.253906 6.050781 6.515625 6.832031 6.515625 7.789062 C 6.515625 8.75 7.253906 9.527344 8.167969 9.527344 Z M 10.917969 5.472656 C 11.21875 5.472656 11.464844 5.214844 11.464844 4.894531 C 11.464844 4.574219 11.21875 4.316406 10.917969 4.316406 C 10.613281 4.316406 10.367188 4.574219 10.367188 4.894531 C 10.367188 5.214844 10.613281 5.472656 10.917969 5.472656 Z M 10.917969 5.472656 "/>
</g>
</svg>
