<?xml version="1.0" encoding="UTF-8"?>
<svg xmlns="http://www.w3.org/2000/svg" xmlns:xlink="http://www.w3.org/1999/xlink" width="px" height="px" viewBox="0 0 16 16" version="1.1">
<g id="surface1">
<path style=" stroke:none;fill-rule:evenodd;fill:rgb(21.568627%,27.843137%,30.980392%);fill-opacity:1;" d="M 8.808594 3.519531 C 9.671875 3.347656 10.449219 3.472656 11.101562 3.789062 C 11.136719 3.804688 11.171875 3.824219 11.203125 3.839844 L 11.84375 3.582031 C 12.503906 3.3125 13.203125 3.871094 13.085938 4.574219 C 13.402344 4.917969 13.449219 5.496094 13.027344 5.875 L 12.367188 6.464844 C 12.378906 7.1875 12.277344 7.832031 11.972656 8.554688 C 11.429688 9.84375 10.652344 10.8125 9.703125 11.484375 C 9.027344 11.960938 8.308594 12.261719 7.582031 12.425781 C 7.113281 12.53125 6.714844 12.5625 6.425781 12.554688 C 5.53125 12.566406 4.707031 12.378906 3.972656 12.054688 C 3.535156 11.863281 3.214844 11.667969 3.023438 11.519531 C 2.324219 10.980469 2.722656 9.863281 3.601562 9.886719 C 3.773438 9.890625 3.929688 9.886719 4.078125 9.878906 C 3.796875 9.546875 3.648438 9.210938 3.589844 8.9375 C 3.566406 8.84375 3.5625 8.746094 3.570312 8.65625 C 3.511719 8.585938 3.460938 8.511719 3.410156 8.4375 C 3.050781 7.902344 2.945312 7.355469 2.976562 6.886719 C 2.980469 6.855469 2.980469 6.84375 2.980469 6.835938 C 2.980469 6.828125 2.980469 6.820312 2.984375 6.8125 C 3 6.675781 3.042969 6.550781 3.105469 6.445312 C 2.917969 5.84375 2.960938 5.238281 3.140625 4.671875 C 3.195312 4.484375 3.257812 4.339844 3.308594 4.242188 C 3.601562 3.664062 4.390625 3.570312 4.8125 4.0625 C 5.476562 4.839844 6.132812 5.304688 6.761719 5.527344 C 6.835938 5.554688 6.914062 5.578125 6.984375 5.597656 C 7.183594 4.339844 8.011719 3.585938 8.808594 3.519531 Z M 7.875 6.664062 C 7.875 6.664062 6.226562 7.046875 4.386719 4.898438 C 4.386719 4.898438 3.667969 6.304688 4.910156 7.167969 C 4.910156 7.167969 4.503906 7.238281 4.171875 7 C 4.171875 7 4.027344 8.21875 5.507812 8.695312 L 4.71875 8.695312 C 4.71875 8.695312 4.933594 9.675781 6.320312 9.890625 C 6.320312 9.890625 5.746094 10.652344 3.882812 10.605469 C 3.882812 10.605469 4.933594 11.417969 6.535156 11.394531 C 6.535156 11.394531 9.496094 11.539062 10.90625 8.191406 C 11.253906 7.371094 11.21875 6.59375 11.195312 6.210938 L 12.101562 5.398438 L 11.195312 5.566406 C 11.195312 5.566406 11.816406 5.113281 11.886719 4.683594 L 10.882812 5.089844 C 10.882812 5.089844 10.128906 4.40625 8.851562 4.683594 C 8.851562 4.683594 7.683594 4.921875 7.875 6.664062 Z M 7.875 6.664062 "/>
</g>
</svg>
