<?xml version="1.0" encoding="UTF-8"?>
<svg xmlns="http://www.w3.org/2000/svg" xmlns:xlink="http://www.w3.org/1999/xlink" width="px" height="px" viewBox="0 0 8 8" version="1.1">
<g id="surface1">
<path style=" stroke:none;fill-rule:evenodd;fill:rgb(100%,100%,100%);fill-opacity:1;" d="M 7.355469 0.9375 C 6.933594 0.527344 6.339844 0.316406 5.660156 0.316406 L 2.339844 0.316406 C 0.933594 0.316406 0 1.195312 0 2.515625 L 0 5.628906 C 0 6.28125 0.226562 6.84375 0.675781 7.253906 C 1.113281 7.648438 1.695312 7.847656 2.355469 7.847656 L 5.644531 7.847656 C 6.339844 7.847656 6.917969 7.632812 7.339844 7.253906 C 7.773438 6.859375 8 6.296875 8 5.644531 L 8 2.515625 C 8 1.878906 7.773438 1.332031 7.355469 0.9375 Z M 6.144531 2.515625 C 6.402344 2.515625 6.613281 2.320312 6.613281 2.078125 C 6.613281 1.835938 6.402344 1.636719 6.144531 1.636719 C 5.886719 1.636719 5.675781 1.835938 5.675781 2.078125 C 5.675781 2.320312 5.886719 2.515625 6.144531 2.515625 Z M 4 2.121094 C 2.871094 2.121094 1.933594 2.988281 1.933594 4.066406 C 1.933594 5.144531 2.855469 6.007812 4 6.007812 C 5.144531 6.007812 6.066406 5.128906 6.066406 4.066406 C 6.066406 3.003906 5.128906 2.121094 4 2.121094 Z M 4 5.3125 C 3.273438 5.3125 2.675781 4.75 2.675781 4.066406 C 2.675781 3.382812 3.273438 2.820312 4 2.820312 C 4.726562 2.820312 5.324219 3.382812 5.324219 4.066406 C 5.324219 4.75 4.726562 5.3125 4 5.3125 Z M 6.824219 6.753906 C 7.113281 6.496094 7.289062 6.117188 7.289062 5.644531 L 7.289062 2.515625 C 7.289062 2.078125 7.128906 1.699219 6.855469 1.425781 C 6.566406 1.152344 6.160156 1.015625 5.675781 1.015625 L 2.355469 1.015625 C 1.871094 1.015625 1.453125 1.152344 1.175781 1.410156 C 0.886719 1.683594 0.742188 2.0625 0.742188 2.515625 L 0.742188 5.628906 C 0.742188 6.101562 0.886719 6.480469 1.175781 6.753906 C 1.46875 7.011719 1.871094 7.148438 2.355469 7.148438 L 5.644531 7.148438 C 6.128906 7.148438 6.53125 7.011719 6.824219 6.753906 Z M 6.824219 6.753906 "/>
</g>
</svg>
