<?xml version="1.0" encoding="UTF-8"?>
<svg xmlns="http://www.w3.org/2000/svg" xmlns:xlink="http://www.w3.org/1999/xlink" width="px" height="px" viewBox="0 0 38 38" version="1.1">
<g id="surface1">
<path style=" stroke:none;fill-rule:nonzero;fill:rgb(36.078431%,58.823529%,100%);fill-opacity:1;" d="M 19 0 C 29.492188 0 38 8.507812 38 19 C 38 29.492188 29.492188 38 19 38 C 8.507812 38 0 29.492188 0 19 C 0 8.507812 8.507812 0 19 0 Z M 19 0 "/>
<path style=" stroke:none;fill-rule:evenodd;fill:rgb(17.647059%,17.647059%,17.647059%);fill-opacity:1;" d="M 20.546875 12.195312 L 25.03125 16.675781 L 25.03125 25.871094 L 20.535156 25.871094 L 20.535156 22.015625 C 20.535156 21.308594 19.960938 20.730469 19.25 20.730469 C 18.539062 20.730469 17.964844 21.308594 17.964844 22.015625 L 17.964844 25.871094 L 13.46875 25.871094 L 13.46875 16.546875 L 17.824219 12.195312 C 18.574219 11.441406 19.796875 11.441406 20.546875 12.195312 Z M 14.753906 17.078125 L 18.730469 13.101562 C 18.980469 12.851562 19.390625 12.851562 19.640625 13.101562 L 23.746094 17.207031 L 23.746094 24.585938 L 21.820312 24.585938 L 21.820312 22.015625 C 21.820312 20.597656 20.667969 19.449219 19.25 19.449219 C 17.832031 19.449219 16.679688 20.597656 16.679688 22.015625 L 16.679688 24.585938 L 14.753906 24.585938 Z M 14.753906 17.078125 "/>
</g>
</svg>
