<?xml version="1.0" encoding="UTF-8"?>
<svg xmlns="http://www.w3.org/2000/svg" xmlns:xlink="http://www.w3.org/1999/xlink" width="px" height="px" viewBox="0 0 38 38" version="1.1">
<g id="surface1">
<path style=" stroke:none;fill-rule:nonzero;fill:rgb(98.039216%,43.921569%,42.352941%);fill-opacity:1;" d="M 19 0 C 29.492188 0 38 8.507812 38 19 C 38 29.492188 29.492188 38 19 38 C 8.507812 38 0 29.492188 0 19 C 0 8.507812 8.507812 0 19 0 Z M 19 0 "/>
<path style=" stroke:none;fill-rule:nonzero;fill:rgb(17.647059%,17.647059%,17.647059%);fill-opacity:1;" d="M 17.328125 14.335938 L 18.613281 14.335938 C 19.324219 14.335938 20.191406 14.828125 20.554688 15.4375 L 22.144531 18.109375 L 25.039062 18.109375 C 25.390625 18.109375 25.679688 18.394531 25.679688 18.75 C 25.679688 19.105469 25.390625 19.390625 25.039062 19.390625 L 22.085938 19.390625 L 20.496094 22.0625 C 20.132812 22.671875 19.261719 23.164062 18.550781 23.164062 L 17.269531 23.164062 L 19.515625 19.390625 L 15.027344 19.390625 L 14.105469 20.96875 L 12.820312 20.96875 L 14.117188 18.75 L 14.117188 18.730469 L 12.832031 16.53125 L 14.117188 16.53125 L 15.039062 18.109375 L 19.578125 18.109375 Z M 17.328125 14.335938 "/>
</g>
</svg>
