<?xml version="1.0" encoding="UTF-8"?>
<svg xmlns="http://www.w3.org/2000/svg" xmlns:xlink="http://www.w3.org/1999/xlink" width="px" height="px" viewBox="0 0 38 38" version="1.1">
<g id="surface1">
<path style=" stroke:none;fill-rule:nonzero;fill:rgb(43.921569%,80.784314%,53.333333%);fill-opacity:1;" d="M 19 0 C 29.492188 0 38 8.507812 38 19 C 38 29.492188 29.492188 38 19 38 C 8.507812 38 0 29.492188 0 19 C 0 8.507812 8.507812 0 19 0 Z M 19 0 "/>
<path style=" stroke:none;fill-rule:evenodd;fill:rgb(14.901961%,14.901961%,14.901961%);fill-opacity:1;" d="M 21.5625 11.042969 L 15.097656 11.042969 C 14.410156 11.042969 13.855469 11.628906 13.855469 12.355469 L 13.855469 24.191406 C 13.855469 24.917969 14.410156 25.507812 15.097656 25.507812 L 23.789062 25.507812 C 24.476562 25.507812 25.03125 24.917969 25.03125 24.191406 L 25.03125 14.714844 Z M 15.097656 12.355469 L 20.0625 12.355469 L 20.0625 14.988281 C 20.0625 15.710938 20.621094 16.300781 21.304688 16.300781 L 23.789062 16.300781 L 23.789062 24.191406 L 15.097656 24.191406 Z M 21.304688 14.988281 L 21.304688 12.628906 L 23.53125 14.988281 Z M 21.488281 17.808594 L 18.820312 20.632812 L 17.398438 19.125 L 16.519531 20.054688 L 18.820312 22.492188 L 22.367188 18.738281 Z M 21.488281 17.808594 "/>
</g>
</svg>
