<?xml version="1.0" encoding="UTF-8"?>
<svg xmlns="http://www.w3.org/2000/svg" xmlns:xlink="http://www.w3.org/1999/xlink" width="px" height="px" viewBox="0 0 38 38" version="1.1">
<g id="surface1">
<path style=" stroke:none;fill-rule:nonzero;fill:rgb(44.313725%,48.627451%,100%);fill-opacity:1;" d="M 19 0 C 29.492188 0 38 8.507812 38 19 C 38 29.492188 29.492188 38 19 38 C 8.507812 38 0 29.492188 0 19 C 0 8.507812 8.507812 0 19 0 Z M 19 0 "/>
<path style=" stroke:none;fill-rule:nonzero;fill:rgb(21.568627%,27.843137%,30.980392%);fill-opacity:1;" d="M 24.101562 13.878906 C 23.824219 14.15625 23.800781 14.585938 24.046875 14.894531 C 25.164062 16.292969 25.75 18.210938 25.226562 20.21875 C 24.617188 22.5625 22.777344 24.316406 20.449219 24.785156 C 16.523438 25.5625 13.085938 22.53125 13.085938 18.738281 C 13.085938 15.601562 15.433594 13.015625 18.46875 12.640625 L 18.46875 14.191406 C 16.0625 14.601562 14.292969 16.855469 14.679688 19.449219 C 14.976562 21.457031 16.648438 23.070312 18.664062 23.316406 C 21.464844 23.664062 23.855469 21.480469 23.855469 18.738281 C 23.855469 17.777344 23.5625 16.894531 23.0625 16.15625 C 22.800781 15.769531 22.242188 15.746094 21.910156 16.070312 L 21.902344 16.078125 C 21.640625 16.339844 21.617188 16.746094 21.816406 17.054688 C 22.277344 17.761719 22.464844 18.671875 22.195312 19.609375 C 21.894531 20.664062 21.007812 21.5 19.933594 21.738281 C 17.933594 22.179688 16.164062 20.671875 16.164062 18.738281 C 16.164062 17.308594 17.148438 16.117188 18.46875 15.769531 L 18.46875 17.417969 C 18.007812 17.6875 17.703125 18.171875 17.703125 18.738281 C 17.703125 19.585938 18.394531 20.277344 19.238281 20.277344 C 20.085938 20.277344 20.777344 19.585938 20.777344 18.738281 C 20.777344 18.171875 20.472656 17.679688 20.007812 17.417969 L 20.007812 11.59375 C 20.007812 11.292969 19.761719 11.046875 19.464844 11.046875 C 15.339844 10.894531 11.785156 14.171875 11.5625 18.277344 C 11.285156 23.316406 15.722656 27.371094 20.800781 26.277344 C 23.785156 25.640625 26.09375 23.355469 26.765625 20.378906 C 27.308594 17.949219 26.609375 15.640625 25.25 13.9375 C 24.964844 13.578125 24.425781 13.554688 24.101562 13.878906 Z M 24.101562 13.878906 "/>
</g>
</svg>
