<?xml version="1.0" encoding="UTF-8"?>
<svg xmlns="http://www.w3.org/2000/svg" xmlns:xlink="http://www.w3.org/1999/xlink" width="px" height="px" viewBox="0 0 38 38" version="1.1">
<defs>
<filter id="alpha" filterUnits="objectBoundingBox" x="0%" y="0%" width="100%" height="100%">
  <feColorMatrix type="matrix" in="SourceGraphic" values="0 0 0 0 1 0 0 0 0 1 0 0 0 0 1 0 0 0 1 0"/>
</filter>
<mask id="mask0">
  <g filter="url(#alpha)">
<rect x="0" y="0" width="38" height="38" style="fill:rgb(0%,0%,0%);fill-opacity:0.137255;stroke:none;"/>
  </g>
</mask>
<clipPath id="clip1">
  <rect x="0" y="0" width="38" height="38"/>
</clipPath>
<g id="surface5" clip-path="url(#clip1)">
<path style=" stroke:none;fill-rule:nonzero;fill:rgb(44.313725%,48.627451%,100%);fill-opacity:1;" d="M 5.5 0 L 32.5 0 C 35.539062 0 38 2.460938 38 5.5 L 38 32.5 C 38 35.539062 35.539062 38 32.5 38 L 5.5 38 C 2.460938 38 0 35.539062 0 32.5 L 0 5.5 C 0 2.460938 2.460938 0 5.5 0 Z M 5.5 0 "/>
</g>
</defs>
<g id="surface1">
<use xlink:href="#surface5" mask="url(#mask0)"/>
<path style=" stroke:none;fill-rule:nonzero;fill:rgb(44.313725%,48.627451%,100%);fill-opacity:1;" d="M 16.535156 7.882812 L 16.535156 17.5 L 14.636719 17.5 L 14.636719 10.070312 L 12.355469 10.796875 L 12.355469 9.300781 L 16.332031 7.882812 Z M 26.179688 7.902344 L 26.179688 8.925781 L 22.46875 17.5 L 20.464844 17.5 L 24.175781 9.386719 L 19.394531 9.386719 L 19.394531 7.902344 Z M 26.179688 7.902344 "/>
<path style=" stroke:none;fill-rule:nonzero;fill:rgb(44.313725%,48.627451%,100%);fill-opacity:1;" d="M 17.40625 26.171875 L 17.40625 26.433594 C 17.40625 26.921875 17.335938 27.363281 17.199219 27.75 C 17.0625 28.136719 16.871094 28.46875 16.625 28.746094 C 16.375 29.015625 16.082031 29.226562 15.742188 29.371094 C 15.402344 29.515625 15.027344 29.589844 14.617188 29.589844 C 14.203125 29.589844 13.824219 29.515625 13.480469 29.371094 C 13.140625 29.226562 12.84375 29.015625 12.59375 28.746094 C 12.34375 28.46875 12.152344 28.136719 12.011719 27.75 C 11.878906 27.363281 11.8125 26.921875 11.8125 26.433594 L 11.8125 26.171875 C 11.8125 25.683594 11.878906 25.246094 12.011719 24.855469 C 12.152344 24.464844 12.34375 24.132812 12.589844 23.863281 C 12.839844 23.585938 13.132812 23.375 13.472656 23.234375 C 13.816406 23.085938 14.191406 23.011719 14.605469 23.011719 C 15.015625 23.011719 15.390625 23.085938 15.730469 23.234375 C 16.074219 23.375 16.371094 23.585938 16.621094 23.863281 C 16.867188 24.132812 17.0625 24.464844 17.199219 24.855469 C 17.335938 25.246094 17.40625 25.683594 17.40625 26.171875 Z M 15.839844 26.433594 L 15.839844 26.164062 C 15.839844 25.847656 15.8125 25.570312 15.757812 25.328125 C 15.707031 25.085938 15.625 24.882812 15.519531 24.71875 C 15.414062 24.554688 15.285156 24.433594 15.128906 24.347656 C 14.976562 24.265625 14.804688 24.222656 14.605469 24.222656 C 14.402344 24.222656 14.222656 24.265625 14.070312 24.347656 C 13.917969 24.433594 13.789062 24.554688 13.6875 24.71875 C 13.585938 24.882812 13.507812 25.085938 13.457031 25.328125 C 13.40625 25.570312 13.378906 25.847656 13.378906 26.164062 L 13.378906 26.433594 C 13.378906 26.746094 13.40625 27.023438 13.457031 27.269531 C 13.507812 27.507812 13.585938 27.710938 13.6875 27.878906 C 13.792969 28.046875 13.921875 28.171875 14.074219 28.257812 C 14.230469 28.339844 14.410156 28.382812 14.617188 28.382812 C 14.8125 28.382812 14.984375 28.339844 15.136719 28.257812 C 15.289062 28.171875 15.417969 28.046875 15.519531 27.878906 C 15.625 27.710938 15.707031 27.507812 15.757812 27.269531 C 15.8125 27.023438 15.839844 26.746094 15.839844 26.433594 Z M 20.144531 28.445312 C 20.28125 28.445312 20.398438 28.421875 20.496094 28.371094 C 20.59375 28.316406 20.667969 28.246094 20.71875 28.152344 C 20.773438 28.054688 20.796875 27.9375 20.792969 27.804688 L 22.1875 27.804688 C 22.191406 28.160156 22.101562 28.472656 21.921875 28.746094 C 21.746094 29.011719 21.507812 29.21875 21.203125 29.367188 C 20.902344 29.515625 20.558594 29.589844 20.179688 29.589844 C 19.808594 29.589844 19.480469 29.527344 19.203125 29.40625 C 18.925781 29.285156 18.691406 29.113281 18.503906 28.898438 C 18.320312 28.679688 18.179688 28.421875 18.085938 28.128906 C 17.996094 27.835938 17.949219 27.519531 17.949219 27.175781 L 17.949219 27.074219 C 17.949219 26.730469 17.996094 26.414062 18.085938 26.121094 C 18.179688 25.824219 18.320312 25.566406 18.503906 25.351562 C 18.691406 25.132812 18.921875 24.960938 19.199219 24.84375 C 19.476562 24.71875 19.800781 24.65625 20.167969 24.65625 C 20.566406 24.65625 20.914062 24.730469 21.214844 24.882812 C 21.519531 25.03125 21.757812 25.246094 21.933594 25.53125 C 22.105469 25.816406 22.191406 26.160156 22.1875 26.5625 L 20.792969 26.5625 C 20.796875 26.421875 20.773438 26.292969 20.726562 26.179688 C 20.679688 26.0625 20.609375 25.972656 20.507812 25.90625 C 20.410156 25.835938 20.285156 25.800781 20.132812 25.800781 C 19.980469 25.800781 19.859375 25.832031 19.765625 25.902344 C 19.671875 25.96875 19.601562 26.0625 19.550781 26.183594 C 19.503906 26.300781 19.472656 26.433594 19.453125 26.585938 C 19.4375 26.738281 19.433594 26.902344 19.433594 27.074219 L 19.433594 27.175781 C 19.433594 27.351562 19.4375 27.515625 19.453125 27.671875 C 19.472656 27.824219 19.503906 27.960938 19.554688 28.074219 C 19.605469 28.191406 19.675781 28.28125 19.769531 28.347656 C 19.863281 28.414062 19.988281 28.445312 20.144531 28.445312 Z M 25.324219 24.746094 L 25.324219 25.773438 L 22.460938 25.773438 L 22.460938 24.746094 Z M 23.0625 23.5625 L 24.542969 23.5625 L 24.542969 27.949219 C 24.542969 28.074219 24.558594 28.171875 24.585938 28.242188 C 24.617188 28.3125 24.664062 28.359375 24.734375 28.386719 C 24.808594 28.414062 24.90625 28.429688 25.027344 28.429688 C 25.109375 28.429688 25.179688 28.425781 25.238281 28.421875 C 25.292969 28.417969 25.34375 28.410156 25.394531 28.402344 L 25.394531 29.460938 C 25.269531 29.5 25.136719 29.53125 25 29.554688 C 24.863281 29.574219 24.714844 29.589844 24.558594 29.589844 C 24.242188 29.589844 23.972656 29.539062 23.746094 29.4375 C 23.523438 29.339844 23.355469 29.183594 23.238281 28.96875 C 23.121094 28.753906 23.0625 28.476562 23.0625 28.132812 Z M 23.0625 23.5625 "/>
</g>
</svg>
