<?xml version="1.0" encoding="UTF-8"?>
<svg xmlns="http://www.w3.org/2000/svg" xmlns:xlink="http://www.w3.org/1999/xlink" width="px" height="px" viewBox="0 0 38 38" version="1.1">
<g id="surface1">
<path style=" stroke:none;fill-rule:nonzero;fill:rgb(100%,34.901961%,34.901961%);fill-opacity:1;" d="M 19 0 C 29.492188 0 38 8.507812 38 19 C 38 29.492188 29.492188 38 19 38 C 8.507812 38 0 29.492188 0 19 C 0 8.507812 8.507812 0 19 0 Z M 19 0 "/>
<path style=" stroke:none;fill-rule:evenodd;fill:rgb(17.647059%,17.647059%,17.647059%);fill-opacity:1;" d="M 12.828125 23.246094 C 12.828125 24.3125 13.6875 25.171875 14.753906 25.171875 L 23.746094 25.171875 C 24.8125 25.171875 25.671875 24.3125 25.671875 23.246094 L 25.671875 14.253906 C 25.671875 13.1875 24.8125 12.328125 23.746094 12.328125 L 14.753906 12.328125 C 13.6875 12.328125 12.828125 13.1875 12.828125 14.253906 Z M 24.390625 23.246094 C 24.390625 23.601562 24.101562 23.890625 23.746094 23.890625 L 14.753906 23.890625 C 14.398438 23.890625 14.109375 23.601562 14.109375 23.246094 L 14.109375 14.253906 C 14.109375 13.898438 14.398438 13.609375 14.753906 13.609375 L 17.964844 13.609375 L 17.964844 18.757812 L 19.503906 18.757812 L 20.535156 17.378906 L 21.566406 18.757812 L 23.105469 18.757812 L 23.105469 13.609375 L 23.746094 13.609375 C 24.101562 13.609375 24.390625 13.898438 24.390625 14.253906 Z M 19.25 13.609375 L 21.820312 13.609375 L 21.820312 17.039062 L 20.535156 15.320312 L 19.25 17.039062 Z M 19.25 13.609375 "/>
</g>
</svg>
